<?xml version="1.0" encoding="us-ascii" standalone="no"?><svg xmlns="http://www.w3.org/2000/svg" xmlns:xlink="http://www.w3.org/1999/xlink" contentStyleType="text/css" height="1661px" preserveAspectRatio="none" style="width:385px;height:1661px;" version="1.1" viewBox="0 0 385 1661" width="385px" zoomAndPan="magnify"><defs/><g><!--class KIHPanel--><g id="elem_KIHPanel"><rect codeLine="6" fill="#F1F1F1" height="646.7188" id="KIHPanel" style="stroke:#181818;stroke-width:0.5;" width="369" x="9" y="283"/><ellipse cx="160.75" cy="299" fill="#ADD1B2" rx="11" ry="11" style="stroke:#181818;stroke-width:1.0;"/><path d="M163.5156,294.875 Q163.6719,294.6563 163.8594,294.5469 Q164.0469,294.4375 164.2656,294.4375 Q164.6406,294.4375 164.875,294.7031 Q165.1094,294.9531 165.1094,295.5625 L165.1094,297.0156 Q165.1094,297.625 164.875,297.8906 Q164.6406,298.1563 164.2656,298.1563 Q163.9219,298.1563 163.7188,297.9531 Q163.5156,297.7656 163.4063,297.25 Q163.3594,296.8906 163.1719,296.7031 Q162.8438,296.3281 162.2344,296.1094 Q161.625,295.8906 161,295.8906 Q160.2344,295.8906 159.5938,296.2188 Q158.9688,296.5469 158.4688,297.2969 Q157.9844,298.0469 157.9844,299.0781 L157.9844,300.1719 Q157.9844,301.4063 158.875,302.2344 Q159.7656,303.0469 161.3594,303.0469 Q162.2969,303.0469 162.9531,302.7969 Q163.3438,302.6406 163.7656,302.2031 Q164.0313,301.9375 164.1719,301.8594 Q164.3281,301.7813 164.5313,301.7813 Q164.8594,301.7813 165.1094,302.0469 Q165.375,302.2969 165.375,302.6406 Q165.375,302.9844 165.0313,303.3906 Q164.5313,303.9688 163.7344,304.2969 Q162.6563,304.75 161.3594,304.75 Q159.8438,304.75 158.6406,304.125 Q157.6563,303.625 156.9688,302.5625 Q156.2813,301.4844 156.2813,300.2031 L156.2813,299.0469 Q156.2813,297.7188 156.8906,296.5781 Q157.5156,295.4219 158.6094,294.8125 Q159.7031,294.1875 160.9375,294.1875 Q161.6719,294.1875 162.3125,294.3594 Q162.9688,294.5156 163.5156,294.875 Z " fill="#000000"/><text fill="#000000" font-family="sans-serif" font-size="14" lengthAdjust="spacing" textLength="57" x="181.25" y="304.7285">KIHPanel</text><line style="stroke:#181818;stroke-width:0.5;" x1="10" x2="377" y1="315" y2="315"/><ellipse cx="20" cy="329.3047" fill="none" rx="3" ry="3" style="stroke:#038048;stroke-width:1.0;"/><text fill="#000000" font-family="sans-serif" font-size="14" lengthAdjust="spacing" textLength="62" x="29" y="333.5332">func : any</text><ellipse cx="20" cy="346.9141" fill="none" rx="3" ry="3" style="stroke:#038048;stroke-width:1.0;"/><text fill="#000000" font-family="sans-serif" font-size="14" lengthAdjust="spacing" textLength="58" x="29" y="351.1426">id : string</text><ellipse cx="20" cy="364.5234" fill="none" rx="3" ry="3" style="stroke:#038048;stroke-width:1.0;"/><text fill="#000000" font-family="sans-serif" font-size="14" lengthAdjust="spacing" textLength="121" x="29" y="368.752">initialised : boolean</text><ellipse cx="20" cy="382.1328" fill="none" rx="3" ry="3" style="stroke:#038048;stroke-width:1.0;"/><text fill="#000000" font-family="sans-serif" font-size="14" lengthAdjust="spacing" textLength="137" x="29" y="386.3613">initialMoved : boolean</text><ellipse cx="20" cy="399.7422" fill="none" rx="3" ry="3" style="stroke:#038048;stroke-width:1.0;"/><text fill="#000000" font-family="sans-serif" font-size="14" lengthAdjust="spacing" textLength="145" x="29" y="403.9707">initialResized : boolean</text><ellipse cx="20" cy="417.3516" fill="none" rx="3" ry="3" style="stroke:#038048;stroke-width:1.0;"/><text fill="#000000" font-family="sans-serif" font-size="14" lengthAdjust="spacing" textLength="108" x="29" y="421.5801">isOpen : boolean</text><ellipse cx="20" cy="434.9609" fill="none" rx="3" ry="3" style="stroke:#038048;stroke-width:1.0;"/><text fill="#000000" font-family="sans-serif" font-size="14" lengthAdjust="spacing" textLength="122" x="29" y="439.1895">localizer : ILocalizer</text><ellipse cx="20" cy="452.5703" fill="none" rx="3" ry="3" style="stroke:#038048;stroke-width:1.0;"/><text fill="#000000" font-family="sans-serif" font-size="14" lengthAdjust="spacing" textLength="77" x="29" y="456.7988">math : IMath</text><ellipse cx="20" cy="470.1797" fill="none" rx="3" ry="3" style="stroke:#038048;stroke-width:1.0;"/><text fill="#000000" font-family="sans-serif" font-size="14" lengthAdjust="spacing" textLength="139" x="29" y="474.4082">messager : IMessager</text><ellipse cx="20" cy="487.7891" fill="none" rx="3" ry="3" style="stroke:#038048;stroke-width:1.0;"/><text fill="#000000" font-family="sans-serif" font-size="14" lengthAdjust="spacing" textLength="107" x="29" y="492.0176">parameters : any</text><ellipse cx="20" cy="505.3984" fill="none" rx="3" ry="3" style="stroke:#038048;stroke-width:1.0;"/><text fill="#000000" font-family="sans-serif" font-size="14" lengthAdjust="spacing" textLength="76" x="29" y="509.627">parent : any</text><ellipse cx="20" cy="523.0078" fill="none" rx="3" ry="3" style="stroke:#038048;stroke-width:1.0;"/><text fill="#000000" font-family="sans-serif" font-size="14" lengthAdjust="spacing" textLength="98" x="29" y="527.2363">parser : IParser</text><ellipse cx="20" cy="540.6172" fill="none" rx="3" ry="3" style="stroke:#038048;stroke-width:1.0;"/><text fill="#000000" font-family="sans-serif" font-size="14" lengthAdjust="spacing" textLength="176" x="29" y="544.8457">services : ISelectedServices</text><ellipse cx="20" cy="558.2266" fill="none" rx="3" ry="3" style="stroke:#038048;stroke-width:1.0;"/><text fill="#000000" font-family="sans-serif" font-size="14" lengthAdjust="spacing" textLength="96" x="29" y="562.4551">silent : boolean</text><line style="stroke:#181818;stroke-width:0.5;" x1="10" x2="377" y1="569.5313" y2="569.5313"/><ellipse cx="20" cy="583.8359" fill="#84BE84" rx="3" ry="3" style="stroke:#038048;stroke-width:1.0;"/><text fill="#000000" font-family="sans-serif" font-size="14" lengthAdjust="spacing" textLength="249" x="29" y="588.0645">initialise(_dummy: any) : Promise&lt;void&gt;</text><ellipse cx="20" cy="601.4453" fill="#84BE84" rx="3" ry="3" style="stroke:#038048;stroke-width:1.0;"/><text fill="#000000" font-family="sans-serif" font-size="14" lengthAdjust="spacing" textLength="142" x="29" y="605.6738">load() : Promise&lt;void&gt;</text><ellipse cx="20" cy="619.0547" fill="#84BE84" rx="3" ry="3" style="stroke:#038048;stroke-width:1.0;"/><text fill="#000000" font-family="sans-serif" font-size="14" lengthAdjust="spacing" textLength="100" x="29" y="623.2832">onClose() : void</text><ellipse cx="20" cy="636.6641" fill="#84BE84" rx="3" ry="3" style="stroke:#038048;stroke-width:1.0;"/><text fill="#000000" font-family="sans-serif" font-size="14" lengthAdjust="spacing" textLength="257" x="29" y="640.8926">onMove(left: number, top: number) : void</text><ellipse cx="20" cy="654.2734" fill="#84BE84" rx="3" ry="3" style="stroke:#038048;stroke-width:1.0;"/><text fill="#000000" font-family="sans-serif" font-size="14" lengthAdjust="spacing" textLength="99" x="29" y="658.502">onOpen() : void</text><ellipse cx="20" cy="671.8828" fill="#84BE84" rx="3" ry="3" style="stroke:#038048;stroke-width:1.0;"/><text fill="#000000" font-family="sans-serif" font-size="14" lengthAdjust="spacing" textLength="297" x="29" y="676.1113">onResize(width: number, height: number) : void</text><ellipse cx="20" cy="689.4922" fill="#84BE84" rx="3" ry="3" style="stroke:#038048;stroke-width:1.0;"/><text fill="#000000" font-family="sans-serif" font-size="14" lengthAdjust="spacing" textLength="80" x="29" y="693.7207">open() : void</text><ellipse cx="20" cy="707.1016" fill="#84BE84" rx="3" ry="3" style="stroke:#038048;stroke-width:1.0;"/><text fill="#000000" font-family="sans-serif" font-size="14" lengthAdjust="spacing" textLength="160" x="29" y="711.3301">refresh() : Promise&lt;void&gt;</text><ellipse cx="20" cy="724.7109" fill="#84BE84" rx="3" ry="3" style="stroke:#038048;stroke-width:1.0;"/><text fill="#000000" font-family="sans-serif" font-size="14" lengthAdjust="spacing" textLength="85" x="29" y="728.9395">resize() : void</text><ellipse cx="20" cy="742.3203" fill="#84BE84" rx="3" ry="3" style="stroke:#038048;stroke-width:1.0;"/><text fill="#000000" font-family="sans-serif" font-size="14" lengthAdjust="spacing" textLength="147" x="29" y="746.5488">show() : Promise&lt;void&gt;</text><ellipse cx="20" cy="759.9297" fill="#84BE84" rx="3" ry="3" style="stroke:#038048;stroke-width:1.0;"/><text fill="#000000" font-family="sans-serif" font-size="14" lengthAdjust="spacing" textLength="154" x="29" y="764.1582">toggle() : Promise&lt;void&gt;</text><ellipse cx="20" cy="777.5391" fill="#84BE84" rx="3" ry="3" style="stroke:#038048;stroke-width:1.0;"/><text fill="#000000" font-family="sans-serif" font-size="14" lengthAdjust="spacing" textLength="253" x="29" y="781.7676">update(_params: any[]) : Promise&lt;void&gt;</text><polygon fill="#FFFF44" points="20,790.1484,24,794.1484,20,798.1484,16,794.1484" style="stroke:#B38D22;stroke-width:1.0;"/><text fill="#000000" font-family="sans-serif" font-size="14" lengthAdjust="spacing" textLength="82" x="29" y="799.377">focus() : void</text><polygon fill="#FFFF44" points="20,807.7578,24,811.7578,20,815.7578,16,811.7578" style="stroke:#B38D22;stroke-width:1.0;"/><text fill="#000000" font-family="sans-serif" font-size="14" lengthAdjust="spacing" textLength="122" x="29" y="816.9863">initialResize() : void</text><polygon fill="#FFFF44" points="20,825.3672,24,829.3672,20,833.3672,16,829.3672" style="stroke:#B38D22;stroke-width:1.0;"/><text fill="#000000" font-family="sans-serif" font-size="14" lengthAdjust="spacing" textLength="134" x="29" y="834.5957">insert(b: string) : void</text><polygon fill="#FFFF44" points="20,842.9766,24,846.9766,20,850.9766,16,846.9766" style="stroke:#B38D22;stroke-width:1.0;"/><text fill="#000000" font-family="sans-serif" font-size="14" lengthAdjust="spacing" textLength="343" x="29" y="852.2051">localizeOption(option: string, id: any, func: any) : string</text><polygon fill="#FFFF44" points="20,860.5859,24,864.5859,20,868.5859,16,864.5859" style="stroke:#B38D22;stroke-width:1.0;"/><text fill="#000000" font-family="sans-serif" font-size="14" lengthAdjust="spacing" textLength="210" x="29" y="869.8145">outerHtml(selector: string) : string</text><polygon fill="#FFFF44" points="20,878.1953,24,882.1953,20,886.1953,16,882.1953" style="stroke:#B38D22;stroke-width:1.0;"/><text fill="#000000" font-family="sans-serif" font-size="14" lengthAdjust="spacing" textLength="98" x="29" y="887.4238">toOrigin() : void</text><polygon fill="#FFFF44" points="20,895.8047,24,899.8047,20,903.8047,16,899.8047" style="stroke:#B38D22;stroke-width:1.0;"/><text fill="#000000" font-family="sans-serif" font-size="14" lengthAdjust="spacing" textLength="266" x="29" y="905.0332">typedResize(type: RESIZING_TYPE) : void</text><polygon fill="#FFFF44" points="20,913.4141,24,917.4141,20,921.4141,16,917.4141" style="stroke:#B38D22;stroke-width:1.0;"/><text fill="#000000" font-family="sans-serif" font-size="14" lengthAdjust="spacing" textLength="135" x="29" y="922.6426">updateOutput() : void</text></g><!--class IPanel--><g id="elem_IPanel"><rect codeLine="42" fill="#F1F1F1" height="216.0938" id="IPanel" style="stroke:#181818;stroke-width:0.5;" width="323" x="32" y="7"/><ellipse cx="169.25" cy="23" fill="#B4A7E5" rx="11" ry="11" style="stroke:#181818;stroke-width:1.0;"/><path d="M170.2031,19.6406 L170.2031,26.2969 L171.9219,26.2969 Q172.5313,26.2969 172.7969,26.5313 Q173.0625,26.7656 173.0625,27.1563 Q173.0625,27.5313 172.7969,27.7656 Q172.5313,28 171.9219,28 L166.7813,28 Q166.1719,28 165.9063,27.7656 Q165.6406,27.5313 165.6406,27.1406 Q165.6406,26.7656 165.9063,26.5313 Q166.1719,26.2969 166.7813,26.2969 L168.5,26.2969 L168.5,19.6406 L166.7813,19.6406 Q166.1719,19.6406 165.9063,19.4063 Q165.6406,19.1719 165.6406,18.7813 Q165.6406,18.4063 165.9063,18.1719 Q166.1719,17.9375 166.7813,17.9375 L171.9219,17.9375 Q172.5313,17.9375 172.7969,18.1719 Q173.0625,18.4063 173.0625,18.7813 Q173.0625,19.1719 172.7969,19.4063 Q172.5313,19.6406 171.9219,19.6406 L170.2031,19.6406 Z " fill="#000000"/><text fill="#000000" font-family="sans-serif" font-size="14" font-style="italic" lengthAdjust="spacing" textLength="40" x="189.75" y="28.7285">IPanel</text><line style="stroke:#181818;stroke-width:0.5;" x1="33" x2="354" y1="39" y2="39"/><ellipse cx="43" cy="53.3047" fill="#84BE84" rx="3" ry="3" style="stroke:#038048;stroke-width:1.0;"/><text fill="#000000" font-family="sans-serif" font-size="14" lengthAdjust="spacing" textLength="241" x="52" y="57.5332">initialise(dummy: any) : Promise&lt;void&gt;</text><ellipse cx="43" cy="70.9141" fill="#84BE84" rx="3" ry="3" style="stroke:#038048;stroke-width:1.0;"/><text fill="#000000" font-family="sans-serif" font-size="14" lengthAdjust="spacing" textLength="100" x="52" y="75.1426">onClose() : void</text><ellipse cx="43" cy="88.5234" fill="#84BE84" rx="3" ry="3" style="stroke:#038048;stroke-width:1.0;"/><text fill="#000000" font-family="sans-serif" font-size="14" lengthAdjust="spacing" textLength="257" x="52" y="92.752">onMove(left: number, top: number) : void</text><ellipse cx="43" cy="106.1328" fill="#84BE84" rx="3" ry="3" style="stroke:#038048;stroke-width:1.0;"/><text fill="#000000" font-family="sans-serif" font-size="14" lengthAdjust="spacing" textLength="297" x="52" y="110.3613">onResize(width: number, height: number) : void</text><ellipse cx="43" cy="123.7422" fill="#84BE84" rx="3" ry="3" style="stroke:#038048;stroke-width:1.0;"/><text fill="#000000" font-family="sans-serif" font-size="14" lengthAdjust="spacing" textLength="80" x="52" y="127.9707">open() : void</text><ellipse cx="43" cy="141.3516" fill="#84BE84" rx="3" ry="3" style="stroke:#038048;stroke-width:1.0;"/><text fill="#000000" font-family="sans-serif" font-size="14" lengthAdjust="spacing" textLength="160" x="52" y="145.5801">refresh() : Promise&lt;void&gt;</text><ellipse cx="43" cy="158.9609" fill="#84BE84" rx="3" ry="3" style="stroke:#038048;stroke-width:1.0;"/><text fill="#000000" font-family="sans-serif" font-size="14" lengthAdjust="spacing" textLength="85" x="52" y="163.1895">resize() : void</text><ellipse cx="43" cy="176.5703" fill="#84BE84" rx="3" ry="3" style="stroke:#038048;stroke-width:1.0;"/><text fill="#000000" font-family="sans-serif" font-size="14" lengthAdjust="spacing" textLength="147" x="52" y="180.7988">show() : Promise&lt;void&gt;</text><ellipse cx="43" cy="194.1797" fill="#84BE84" rx="3" ry="3" style="stroke:#038048;stroke-width:1.0;"/><text fill="#000000" font-family="sans-serif" font-size="14" lengthAdjust="spacing" textLength="154" x="52" y="198.4082">toggle() : Promise&lt;void&gt;</text><ellipse cx="43" cy="211.7891" fill="#84BE84" rx="3" ry="3" style="stroke:#038048;stroke-width:1.0;"/><text fill="#000000" font-family="sans-serif" font-size="14" lengthAdjust="spacing" textLength="237" x="52" y="216.0176">update(params: any) : Promise&lt;void&gt;</text></g><!--class KIHWindow--><g id="elem_KIHWindow"><rect codeLine="55" fill="#F1F1F1" height="664.3281" id="KIHWindow" style="stroke:#181818;stroke-width:0.5;" width="369" x="9" y="990"/><ellipse cx="154.25" cy="1006" fill="#ADD1B2" rx="11" ry="11" style="stroke:#181818;stroke-width:1.0;"/><path d="M157.0156,1001.875 Q157.1719,1001.6563 157.3594,1001.5469 Q157.5469,1001.4375 157.7656,1001.4375 Q158.1406,1001.4375 158.375,1001.7031 Q158.6094,1001.9531 158.6094,1002.5625 L158.6094,1004.0156 Q158.6094,1004.625 158.375,1004.8906 Q158.1406,1005.1563 157.7656,1005.1563 Q157.4219,1005.1563 157.2188,1004.9531 Q157.0156,1004.7656 156.9063,1004.25 Q156.8594,1003.8906 156.6719,1003.7031 Q156.3438,1003.3281 155.7344,1003.1094 Q155.125,1002.8906 154.5,1002.8906 Q153.7344,1002.8906 153.0938,1003.2188 Q152.4688,1003.5469 151.9688,1004.2969 Q151.4844,1005.0469 151.4844,1006.0781 L151.4844,1007.1719 Q151.4844,1008.4063 152.375,1009.2344 Q153.2656,1010.0469 154.8594,1010.0469 Q155.7969,1010.0469 156.4531,1009.7969 Q156.8438,1009.6406 157.2656,1009.2031 Q157.5313,1008.9375 157.6719,1008.8594 Q157.8281,1008.7813 158.0313,1008.7813 Q158.3594,1008.7813 158.6094,1009.0469 Q158.875,1009.2969 158.875,1009.6406 Q158.875,1009.9844 158.5313,1010.3906 Q158.0313,1010.9688 157.2344,1011.2969 Q156.1563,1011.75 154.8594,1011.75 Q153.3438,1011.75 152.1406,1011.125 Q151.1563,1010.625 150.4688,1009.5625 Q149.7813,1008.4844 149.7813,1007.2031 L149.7813,1006.0469 Q149.7813,1004.7188 150.3906,1003.5781 Q151.0156,1002.4219 152.1094,1001.8125 Q153.2031,1001.1875 154.4375,1001.1875 Q155.1719,1001.1875 155.8125,1001.3594 Q156.4688,1001.5156 157.0156,1001.875 Z " fill="#000000"/><text fill="#000000" font-family="sans-serif" font-size="14" lengthAdjust="spacing" textLength="70" x="174.75" y="1011.7285">KIHWindow</text><line style="stroke:#181818;stroke-width:0.5;" x1="10" x2="377" y1="1022" y2="1022"/><ellipse cx="20" cy="1036.3047" fill="none" rx="3" ry="3" style="stroke:#038048;stroke-width:1.0;"/><text fill="#000000" font-family="sans-serif" font-size="14" lengthAdjust="spacing" textLength="62" x="29" y="1040.5332">func : any</text><ellipse cx="20" cy="1053.9141" fill="none" rx="3" ry="3" style="stroke:#038048;stroke-width:1.0;"/><text fill="#000000" font-family="sans-serif" font-size="14" lengthAdjust="spacing" textLength="58" x="29" y="1058.1426">id : string</text><ellipse cx="20" cy="1071.5234" fill="none" rx="3" ry="3" style="stroke:#038048;stroke-width:1.0;"/><text fill="#000000" font-family="sans-serif" font-size="14" lengthAdjust="spacing" textLength="121" x="29" y="1075.752">initialised : boolean</text><ellipse cx="20" cy="1089.1328" fill="none" rx="3" ry="3" style="stroke:#038048;stroke-width:1.0;"/><text fill="#000000" font-family="sans-serif" font-size="14" lengthAdjust="spacing" textLength="137" x="29" y="1093.3613">initialMoved : boolean</text><ellipse cx="20" cy="1106.7422" fill="none" rx="3" ry="3" style="stroke:#038048;stroke-width:1.0;"/><text fill="#000000" font-family="sans-serif" font-size="14" lengthAdjust="spacing" textLength="145" x="29" y="1110.9707">initialResized : boolean</text><ellipse cx="20" cy="1124.3516" fill="none" rx="3" ry="3" style="stroke:#038048;stroke-width:1.0;"/><text fill="#000000" font-family="sans-serif" font-size="14" lengthAdjust="spacing" textLength="108" x="29" y="1128.5801">isOpen : boolean</text><ellipse cx="20" cy="1141.9609" fill="none" rx="3" ry="3" style="stroke:#038048;stroke-width:1.0;"/><text fill="#000000" font-family="sans-serif" font-size="14" lengthAdjust="spacing" textLength="122" x="29" y="1146.1895">localizer : ILocalizer</text><ellipse cx="20" cy="1159.5703" fill="none" rx="3" ry="3" style="stroke:#038048;stroke-width:1.0;"/><text fill="#000000" font-family="sans-serif" font-size="14" lengthAdjust="spacing" textLength="77" x="29" y="1163.7988">math : IMath</text><ellipse cx="20" cy="1177.1797" fill="none" rx="3" ry="3" style="stroke:#038048;stroke-width:1.0;"/><text fill="#000000" font-family="sans-serif" font-size="14" lengthAdjust="spacing" textLength="139" x="29" y="1181.4082">messager : IMessager</text><ellipse cx="20" cy="1194.7891" fill="none" rx="3" ry="3" style="stroke:#038048;stroke-width:1.0;"/><text fill="#000000" font-family="sans-serif" font-size="14" lengthAdjust="spacing" textLength="107" x="29" y="1199.0176">parameters : any</text><ellipse cx="20" cy="1212.3984" fill="none" rx="3" ry="3" style="stroke:#038048;stroke-width:1.0;"/><text fill="#000000" font-family="sans-serif" font-size="14" lengthAdjust="spacing" textLength="76" x="29" y="1216.627">parent : any</text><ellipse cx="20" cy="1230.0078" fill="none" rx="3" ry="3" style="stroke:#038048;stroke-width:1.0;"/><text fill="#000000" font-family="sans-serif" font-size="14" lengthAdjust="spacing" textLength="98" x="29" y="1234.2363">parser : IParser</text><ellipse cx="20" cy="1247.6172" fill="none" rx="3" ry="3" style="stroke:#038048;stroke-width:1.0;"/><text fill="#000000" font-family="sans-serif" font-size="14" lengthAdjust="spacing" textLength="176" x="29" y="1251.8457">services : ISelectedServices</text><ellipse cx="20" cy="1265.2266" fill="none" rx="3" ry="3" style="stroke:#038048;stroke-width:1.0;"/><text fill="#000000" font-family="sans-serif" font-size="14" lengthAdjust="spacing" textLength="96" x="29" y="1269.4551">silent : boolean</text><line style="stroke:#181818;stroke-width:0.5;" x1="10" x2="377" y1="1276.5313" y2="1276.5313"/><ellipse cx="20" cy="1290.8359" fill="#84BE84" rx="3" ry="3" style="stroke:#038048;stroke-width:1.0;"/><text fill="#000000" font-family="sans-serif" font-size="14" lengthAdjust="spacing" textLength="241" x="29" y="1295.0645">initialise(dummy: any) : Promise&lt;void&gt;</text><ellipse cx="20" cy="1308.4453" fill="#84BE84" rx="3" ry="3" style="stroke:#038048;stroke-width:1.0;"/><text fill="#000000" font-family="sans-serif" font-size="14" lengthAdjust="spacing" textLength="285" x="29" y="1312.6738">internalLoad(initial: boolean) : Promise&lt;void&gt;</text><ellipse cx="20" cy="1326.0547" fill="#84BE84" rx="3" ry="3" style="stroke:#038048;stroke-width:1.0;"/><text fill="#000000" font-family="sans-serif" font-size="14" lengthAdjust="spacing" textLength="142" x="29" y="1330.2832">load() : Promise&lt;void&gt;</text><ellipse cx="20" cy="1343.6641" fill="#84BE84" rx="3" ry="3" style="stroke:#038048;stroke-width:1.0;"/><text fill="#000000" font-family="sans-serif" font-size="14" lengthAdjust="spacing" textLength="100" x="29" y="1347.8926">onClose() : void</text><ellipse cx="20" cy="1361.2734" fill="#84BE84" rx="3" ry="3" style="stroke:#038048;stroke-width:1.0;"/><text fill="#000000" font-family="sans-serif" font-size="14" lengthAdjust="spacing" textLength="257" x="29" y="1365.502">onMove(left: number, top: number) : void</text><ellipse cx="20" cy="1378.8828" fill="#84BE84" rx="3" ry="3" style="stroke:#038048;stroke-width:1.0;"/><text fill="#000000" font-family="sans-serif" font-size="14" lengthAdjust="spacing" textLength="99" x="29" y="1383.1113">onOpen() : void</text><ellipse cx="20" cy="1396.4922" fill="#84BE84" rx="3" ry="3" style="stroke:#038048;stroke-width:1.0;"/><text fill="#000000" font-family="sans-serif" font-size="14" lengthAdjust="spacing" textLength="297" x="29" y="1400.7207">onResize(width: number, height: number) : void</text><ellipse cx="20" cy="1414.1016" fill="#84BE84" rx="3" ry="3" style="stroke:#038048;stroke-width:1.0;"/><text fill="#000000" font-family="sans-serif" font-size="14" lengthAdjust="spacing" textLength="80" x="29" y="1418.3301">open() : void</text><ellipse cx="20" cy="1431.7109" fill="#84BE84" rx="3" ry="3" style="stroke:#038048;stroke-width:1.0;"/><text fill="#000000" font-family="sans-serif" font-size="14" lengthAdjust="spacing" textLength="160" x="29" y="1435.9395">refresh() : Promise&lt;void&gt;</text><ellipse cx="20" cy="1449.3203" fill="#84BE84" rx="3" ry="3" style="stroke:#038048;stroke-width:1.0;"/><text fill="#000000" font-family="sans-serif" font-size="14" lengthAdjust="spacing" textLength="85" x="29" y="1453.5488">resize() : void</text><ellipse cx="20" cy="1466.9297" fill="#84BE84" rx="3" ry="3" style="stroke:#038048;stroke-width:1.0;"/><text fill="#000000" font-family="sans-serif" font-size="14" lengthAdjust="spacing" textLength="147" x="29" y="1471.1582">show() : Promise&lt;void&gt;</text><ellipse cx="20" cy="1484.5391" fill="#84BE84" rx="3" ry="3" style="stroke:#038048;stroke-width:1.0;"/><text fill="#000000" font-family="sans-serif" font-size="14" lengthAdjust="spacing" textLength="154" x="29" y="1488.7676">toggle() : Promise&lt;void&gt;</text><ellipse cx="20" cy="1502.1484" fill="#84BE84" rx="3" ry="3" style="stroke:#038048;stroke-width:1.0;"/><text fill="#000000" font-family="sans-serif" font-size="14" lengthAdjust="spacing" textLength="253" x="29" y="1506.377">update(_params: any[]) : Promise&lt;void&gt;</text><polygon fill="#FFFF44" points="20,1514.7578,24,1518.7578,20,1522.7578,16,1518.7578" style="stroke:#B38D22;stroke-width:1.0;"/><text fill="#000000" font-family="sans-serif" font-size="14" lengthAdjust="spacing" textLength="82" x="29" y="1523.9863">focus() : void</text><polygon fill="#FFFF44" points="20,1532.3672,24,1536.3672,20,1540.3672,16,1536.3672" style="stroke:#B38D22;stroke-width:1.0;"/><text fill="#000000" font-family="sans-serif" font-size="14" lengthAdjust="spacing" textLength="122" x="29" y="1541.5957">initialResize() : void</text><polygon fill="#FFFF44" points="20,1549.9766,24,1553.9766,20,1557.9766,16,1553.9766" style="stroke:#B38D22;stroke-width:1.0;"/><text fill="#000000" font-family="sans-serif" font-size="14" lengthAdjust="spacing" textLength="134" x="29" y="1559.2051">insert(b: string) : void</text><polygon fill="#FFFF44" points="20,1567.5859,24,1571.5859,20,1575.5859,16,1571.5859" style="stroke:#B38D22;stroke-width:1.0;"/><text fill="#000000" font-family="sans-serif" font-size="14" lengthAdjust="spacing" textLength="343" x="29" y="1576.8145">localizeOption(option: string, id: any, func: any) : string</text><polygon fill="#FFFF44" points="20,1585.1953,24,1589.1953,20,1593.1953,16,1589.1953" style="stroke:#B38D22;stroke-width:1.0;"/><text fill="#000000" font-family="sans-serif" font-size="14" lengthAdjust="spacing" textLength="210" x="29" y="1594.4238">outerHtml(selector: string) : string</text><polygon fill="#FFFF44" points="20,1602.8047,24,1606.8047,20,1610.8047,16,1606.8047" style="stroke:#B38D22;stroke-width:1.0;"/><text fill="#000000" font-family="sans-serif" font-size="14" lengthAdjust="spacing" textLength="98" x="29" y="1612.0332">toOrigin() : void</text><polygon fill="#FFFF44" points="20,1620.4141,24,1624.4141,20,1628.4141,16,1624.4141" style="stroke:#B38D22;stroke-width:1.0;"/><text fill="#000000" font-family="sans-serif" font-size="14" lengthAdjust="spacing" textLength="266" x="29" y="1629.6426">typedResize(type: RESIZING_TYPE) : void</text><polygon fill="#FFFF44" points="20,1638.0234,24,1642.0234,20,1646.0234,16,1642.0234" style="stroke:#B38D22;stroke-width:1.0;"/><text fill="#000000" font-family="sans-serif" font-size="14" lengthAdjust="spacing" textLength="135" x="29" y="1647.252">updateOutput() : void</text></g><!--reverse link IPanel to KIHPanel--><g id="link_IPanel_KIHPanel"><path codeLine="54" d="M193.5,241.12 C193.5,259.69 193.5,261.83 193.5,282.82 " fill="none" id="IPanel-backto-KIHPanel" style="stroke:#181818;stroke-width:1.0;stroke-dasharray:7.0,7.0;"/><polygon fill="none" points="193.5,223.12,187.5,241.12,199.5,241.12,193.5,223.12" style="stroke:#181818;stroke-width:1.0;"/></g><!--reverse link KIHPanel to KIHWindow--><g id="link_KIHPanel_KIHWindow"><path codeLine="92" d="M193.5,948.07 C193.5,967.91 193.5,969.89 193.5,989.77 " fill="none" id="KIHPanel-backto-KIHWindow" style="stroke:#181818;stroke-width:1.0;"/><polygon fill="none" points="193.5,930.07,187.5,948.07,199.5,948.07,193.5,930.07" style="stroke:#181818;stroke-width:1.0;"/></g><!--SRC=[xLPHQzim47xFhn3DYyVIikSGzh1Irh1c2SbWR6CKnJhRehBEIEU4TEr_dspPgPp4z6LZ398NIzztTv8-VJfY7wGkkE4vMsAfnJKQ3OQz6sHI08Eye1rB92XXGoG7oj11Tf-yohZ0hTGfIxYo430VUFoG6bzReM5akBQE0as3M75hsSMdwUs2Qr0NxDU0kT_RfDGn6pEkTtukXPjPCgv-0sX9aYjfeMBMY0guxb0ptFHoIx3oyGHhvmNeGrHXx1PwTAACsVIkdNWkvvHLyCnz6mIivQaFdZLZpzHg086nuScy40U8zVcBUkHHDzZ86AhSwGeKn0HYrM1DX5I-qgaJEw6YUr7c-QvUwOqBMnZC7JpPe1JlswDo4VLmgAyLkYeLNS4jMkaSAKXep7IPhy6C667HJWwZAu6FIlZhYBPIKFPI9GEPPjHJwBYCWSI0pVgsR_mQtHoRuROlWJ1D5VInPI4uEKdhIxMrfZz-deuT9XYNjhloi6F48yvTDaNhrl5TjhNZl229EiBwquQEc1JrPaQiUaBxkmwUpX1Bvy5RobLaQn-X2HSA8mddHgRoGEaXxGeGpSwhyPWjRrRJxzFF7- -_V5lST8EzKFEIYf9UwZmFf7QxI7WCx6BQVVk1Oryrx9ynvV_hly1-nu7FWxsqawUhgw3D1dttgzIkRvyRxzzilA_Qk7uCcgkxglysYVjovrvzxjN_jbS7_yycJvUNOT_u3G00]--></g></svg>